<svg width="51" height="51" viewBox="0 0 51 51" fill="none" xmlns="http://www.w3.org/2000/svg">
<path d="M25.8222 16C23.2172 16 20.7189 17.0348 18.8768 18.8768C17.0348 20.7189 16 23.2172 16 25.8222C16 28.4272 17.0348 30.9255 18.8768 32.7675C20.7189 34.6095 23.2172 35.6443 25.8222 35.6443C28.4272 35.6443 30.9255 34.6095 32.7675 32.7675C34.6095 30.9255 35.6443 28.4272 35.6443 25.8222C35.6443 23.2172 34.6095 20.7189 32.7675 18.8768C30.9255 17.0348 28.4272 16 25.8222 16ZM25.8222 32.2011C24.1298 32.2011 22.5068 31.5288 21.3101 30.3321C20.1134 29.1354 19.4412 27.5124 19.4412 25.82C19.4412 24.1277 20.1134 22.5047 21.3101 21.308C22.5068 20.1113 24.1298 19.439 25.8222 19.439C27.5145 19.439 29.1376 20.1113 30.3342 21.308C31.5309 22.5047 32.2032 24.1277 32.2032 25.82C32.2032 27.5124 31.5309 29.1354 30.3342 30.3321C29.1376 31.5288 27.5145 32.2011 25.8222 32.2011Z" fill="white"/>
<path d="M35.6989 17.5988C36.9635 17.5988 37.9887 16.5736 37.9887 15.3089C37.9887 14.0442 36.9635 13.019 35.6989 13.019C34.4342 13.019 33.409 14.0442 33.409 15.3089C33.409 16.5736 34.4342 17.5988 35.6989 17.5988Z" fill="white"/>
<path d="M43.6156 12.981C43.1239 11.7111 42.3724 10.5579 41.4093 9.59517C40.4462 8.63245 39.2927 7.88142 38.0227 7.39016C36.5365 6.83226 34.9664 6.53059 33.3792 6.49801C31.3337 6.40879 30.6858 6.3833 25.4986 6.3833C20.3113 6.3833 19.6465 6.3833 17.6179 6.49801C16.032 6.52893 14.463 6.83065 12.9787 7.39016C11.7083 7.88085 10.5545 8.63167 9.59135 9.59447C8.62819 10.5573 7.87692 11.7108 7.38575 12.981C6.82774 14.4671 6.52677 16.0373 6.49572 17.6244C6.40438 19.6679 6.37677 20.3157 6.37677 25.5051C6.37677 30.6923 6.37677 31.353 6.49572 33.3858C6.52759 34.9747 6.82709 36.5423 7.38575 38.0313C7.8783 39.3011 8.6303 40.4541 9.59369 41.4168C10.5571 42.3795 11.7107 43.1306 12.9808 43.6222C14.4623 44.2025 16.0319 44.5258 17.6221 44.578C19.6677 44.6673 20.3156 44.6949 25.5028 44.6949C30.69 44.6949 31.3549 44.6949 33.3835 44.578C34.9705 44.5458 36.5405 44.2448 38.0269 43.688C39.2967 43.1956 40.4498 42.4439 41.4128 41.4809C42.3758 40.518 43.1275 39.3648 43.6199 38.0951C44.1785 36.6082 44.4781 35.0405 44.5099 33.4516C44.6013 31.4082 44.6289 30.7603 44.6289 25.571C44.6289 20.3816 44.6289 19.7231 44.5099 17.6903C44.4852 16.0807 44.1826 14.4875 43.6156 12.981ZM41.0284 33.2286C41.0147 34.4528 40.7913 35.6655 40.3678 36.8142C40.0488 37.6402 39.5604 38.3903 38.9341 39.0163C38.3078 39.6422 37.5574 40.1301 36.7312 40.4487C35.5952 40.8702 34.3954 41.0936 33.1838 41.1093C31.1659 41.2027 30.5966 41.2261 25.4221 41.2261C20.2434 41.2261 19.7144 41.2261 17.6582 41.1093C16.4473 41.0945 15.248 40.871 14.113 40.4487C13.2839 40.1321 12.5305 39.6451 11.9015 39.019C11.2725 38.3929 10.782 37.6418 10.4616 36.8142C10.044 35.6779 9.82072 34.4794 9.80094 33.269C9.7096 31.251 9.68835 30.6817 9.68835 25.5072C9.68835 20.3306 9.68835 19.8017 9.80094 17.7434C9.81467 16.5199 10.0381 15.3078 10.4616 14.1599C11.1094 12.4839 12.437 11.1648 14.113 10.5233C15.2486 10.103 16.4475 9.87961 17.6582 9.8627C19.6783 9.77136 20.2455 9.74587 25.4221 9.74587C30.5987 9.74587 31.1298 9.74587 33.1838 9.8627C34.3955 9.87727 35.5955 10.1008 36.7312 10.5233C37.5573 10.8425 38.3076 11.3309 38.9339 11.9572C39.5602 12.5835 40.0486 13.3337 40.3678 14.1599C40.7853 15.2962 41.0086 16.4947 41.0284 17.7051C41.1197 19.7252 41.1431 20.2924 41.1431 25.469C41.1431 30.6435 41.1431 31.2 41.0518 33.2307H41.0284V33.2286Z" fill="white"/>
</svg>
