<svg width="51" height="51" viewBox="0 0 51 51" fill="none" xmlns="http://www.w3.org/2000/svg">
<path d="M10.5848 15.2876C13.1516 15.2876 15.2325 13.2067 15.2325 10.6399C15.2325 8.07303 13.1516 5.99219 10.5848 5.99219C8.01791 5.99219 5.93707 8.07303 5.93707 10.6399C5.93707 13.2067 8.01791 15.2876 10.5848 15.2876Z" fill="#555555"/>
<path d="M19.621 18.8096V44.5949H27.627V31.8435C27.627 28.4788 28.26 25.2204 32.4319 25.2204C36.5464 25.2204 36.5974 29.0672 36.5974 32.056V44.5971H44.6077V30.4565C44.6077 23.5104 43.1122 18.1724 34.9936 18.1724C31.0958 18.1724 28.4831 20.3114 27.4146 22.3357H27.3063V18.8096H19.621ZM6.57434 18.8096H14.5931V44.5949H6.57434V18.8096Z" fill="#555555"/>
</svg>
