<svg width="51" height="51" viewBox="0 0 51 51" fill="none" xmlns="http://www.w3.org/2000/svg">
<path d="M41.7039 16.9871C41.7315 17.3588 41.7315 17.7284 41.7315 18.098C41.7315 29.4092 33.1222 42.4432 17.3885 42.4432C12.5411 42.4432 8.03788 41.0391 4.24835 38.6005C4.93658 38.6791 5.59933 38.7067 6.31517 38.7067C10.1663 38.716 13.9083 37.4283 16.9382 35.051C15.1526 35.0187 13.4218 34.4296 11.9872 33.366C10.5527 32.3024 9.4861 30.8173 8.9364 29.1182C9.46532 29.1968 9.99636 29.2499 10.5529 29.2499C11.3197 29.2499 12.0908 29.1437 12.8066 28.9589C10.8689 28.5677 9.12646 27.5173 7.87563 25.9865C6.6248 24.4557 5.94279 22.5389 5.94557 20.5621V20.4558C7.08625 21.091 8.40961 21.4882 9.81156 21.5413C8.63708 20.7608 7.67405 19.7018 7.00837 18.4587C6.3427 17.2155 5.99509 15.827 5.99655 14.4168C5.99655 12.8279 6.41926 11.3708 7.16059 10.1005C9.31055 12.7451 11.992 14.9087 15.0314 16.4511C18.0707 17.9934 21.4001 18.8802 24.804 19.0539C24.6723 18.4166 24.5916 17.756 24.5916 17.0933C24.591 15.9695 24.8119 14.8566 25.2417 13.8183C25.6715 12.78 26.3017 11.8365 27.0963 11.0419C27.891 10.2473 28.8344 9.61706 29.8728 9.18727C30.9111 8.75748 32.0239 8.53655 33.1477 8.53711C35.6118 8.53711 37.8358 9.56946 39.3992 11.2391C41.3147 10.8686 43.1516 10.1694 44.8285 9.17224C44.19 11.1495 42.8526 12.826 41.0666 13.8879C42.7655 13.6941 44.4259 13.2474 45.9926 12.5624C44.8224 14.2683 43.3725 15.7643 41.7039 16.9871Z" fill="#555555"/>
</svg>
